<?xml version="1.0" encoding="UTF-8"?>
<svg id="Calque_2" data-name="Calque 2" xmlns="http://www.w3.org/2000/svg" viewBox="0 0 45.67 40">
  <defs>
    <style>
      .cls-1 {
        fill: #692fa0;
        stroke-width: 0px;
      }
    </style>
  </defs>
  <g id="Logo_final" data-name="Logo final">
    <g>
      <path class="cls-1" d="m0,0v11.18h15.72c5.59,9.61,11.19,19.21,16.78,28.82v-14.03C27.49,17.32,22.48,8.66,17.47.01H0Z"/>
      <path class="cls-1" d="m25.52,10.8c1.19-3.56,2.37-7.13,3.56-10.69,5.53-.04,11.06-.07,16.59-.11v10.52s-20.15.28-20.15.28Z"/>
      <path class="cls-1" d="m32.5,23.31c.78-3.18,1.55-6.35,2.33-9.53,3.61-.03,7.23-.07,10.84-.1v9.38s-13.17.25-13.17.25Z"/>
      <path class="cls-1" d="m33.69,35.82c.71-3.18,1.41-6.35,2.12-9.53,3.29-.03,6.58-.07,9.86-.1v9.38s-11.98.25-11.98.25Z"/>
    </g>
  </g>
</svg>